<svg id="Layer_3_copy_2" data-name="Layer 3 copy 2" xmlns="http://www.w3.org/2000/svg" viewBox="0 0 600 600"><defs><style>.cls-1{fill:#fff;}.cls-2{fill:#231f20;}</style></defs><title>Studio-Em-Website-Nav-Logo</title><circle class="cls-1" cx="300" cy="300" r="300"/><g id="STUDIO_text_copy_2" data-name="STUDIO text copy 2"><path class="cls-2" d="M169.67,118.85a1.34,1.34,0,0,1-1.23.81,2.73,2.73,0,0,1-1.59-.88,20.36,20.36,0,0,0-6.78-3.91,20.83,20.83,0,0,0-12.57.14,13.42,13.42,0,0,0-4.65,2.85A12.11,12.11,0,0,0,140,122a13,13,0,0,0-1,5,10.18,10.18,0,0,0,1.45,5.65,13,13,0,0,0,3.82,3.8,24.7,24.7,0,0,0,5.38,2.63q3,1.07,6.19,2.11t6.19,2.3a22.36,22.36,0,0,1,5.38,3.15,14.49,14.49,0,0,1,3.82,4.67,14.83,14.83,0,0,1,1.45,6.9,21.75,21.75,0,0,1-1.45,7.95,18.55,18.55,0,0,1-4.2,6.48,19.71,19.71,0,0,1-6.74,4.34,24.45,24.45,0,0,1-9.11,1.59,25.74,25.74,0,0,1-11.43-2.35,26.91,26.91,0,0,1-8.4-6.43l1.33-2.09A1.67,1.67,0,0,1,134,167a1.9,1.9,0,0,1,1.09.57l1.61,1.4q0.95,0.83,2.28,1.8a18.82,18.82,0,0,0,3.08,1.8,21.79,21.79,0,0,0,4,1.4,21.39,21.39,0,0,0,5.17.57,19.63,19.63,0,0,0,7.12-1.21,15.57,15.57,0,0,0,5.29-3.3,14,14,0,0,0,3.3-5,16.5,16.5,0,0,0,1.14-6.14,10.84,10.84,0,0,0-1.45-5.86,12.49,12.49,0,0,0-3.82-3.84,24.69,24.69,0,0,0-5.38-2.59q-3-1-6.19-2t-6.19-2.23a21.32,21.32,0,0,1-5.38-3.16,14.43,14.43,0,0,1-3.82-4.79,15.88,15.88,0,0,1-1.45-7.19,17,17,0,0,1,1.28-6.5,16.16,16.16,0,0,1,3.75-5.53,18.41,18.41,0,0,1,6.1-3.84,22.22,22.22,0,0,1,8.28-1.45,25.05,25.05,0,0,1,9.37,1.66,22.46,22.46,0,0,1,7.57,5.08Z"/><path class="cls-2" d="M231.49,110.69v4.13H207.91v63H203v-63H179.3v-4.13h52.19Z"/><path class="cls-2" d="M267.35,174.36a21.25,21.25,0,0,0,8.66-1.68,18.56,18.56,0,0,0,6.48-4.67,20.57,20.57,0,0,0,4.06-7,26.67,26.67,0,0,0,1.4-8.75V110.69h4.84V152.2A30,30,0,0,1,291,162.57,24.77,24.77,0,0,1,286,171a23.29,23.29,0,0,1-8,5.62,28.57,28.57,0,0,1-21.21,0,23.28,23.28,0,0,1-8-5.62,24.75,24.75,0,0,1-5.05-8.4,30,30,0,0,1-1.75-10.37V110.69h4.89v41.46a26.66,26.66,0,0,0,1.4,8.75,20.77,20.77,0,0,0,4,7,18.59,18.59,0,0,0,6.45,4.7A21,21,0,0,0,267.35,174.36Z"/><path class="cls-2" d="M368.31,144.23a39.74,39.74,0,0,1-2.32,14,30.22,30.22,0,0,1-6.55,10.58,28.33,28.33,0,0,1-10.13,6.69,35.25,35.25,0,0,1-13,2.32H311.76V110.69h24.53a35.27,35.27,0,0,1,13,2.32,28.35,28.35,0,0,1,10.13,6.69A30.23,30.23,0,0,1,366,130.28,39.6,39.6,0,0,1,368.31,144.23Zm-5,0a37.46,37.46,0,0,0-1.95-12.52,26.12,26.12,0,0,0-5.5-9.3,23.52,23.52,0,0,0-8.54-5.79,29.38,29.38,0,0,0-11-2H316.64v59.25h19.64a29.39,29.39,0,0,0,11-2,23.51,23.51,0,0,0,8.54-5.79,26.11,26.11,0,0,0,5.5-9.3A37.61,37.61,0,0,0,363.28,144.23Z"/><path class="cls-2" d="M388.75,177.82h-4.89V110.69h4.89v67.13Z"/><path class="cls-2" d="M468.22,144.23a40.73,40.73,0,0,1-2.32,14.11,31.28,31.28,0,0,1-6.55,10.82,28.91,28.91,0,0,1-10.13,6.93,35.87,35.87,0,0,1-26,0,29,29,0,0,1-10.11-6.93,31.26,31.26,0,0,1-6.55-10.82,43.87,43.87,0,0,1,0-28.18,31.26,31.26,0,0,1,6.55-10.82,29.21,29.21,0,0,1,10.11-7,33.29,33.29,0,0,1,13-2.47,33.76,33.76,0,0,1,13,2.44,28.77,28.77,0,0,1,10.13,7,31.53,31.53,0,0,1,6.55,10.84A40.59,40.59,0,0,1,468.22,144.23Zm-5,0a38.33,38.33,0,0,0-1.95-12.62,27,27,0,0,0-5.5-9.49,23.72,23.72,0,0,0-8.54-6,30.25,30.25,0,0,0-22,0,24,24,0,0,0-8.56,6,27.05,27.05,0,0,0-5.55,9.49,41.51,41.51,0,0,0,0,25.26,27.07,27.07,0,0,0,5.55,9.46,23.68,23.68,0,0,0,8.56,5.93,30.58,30.58,0,0,0,22,0,23.46,23.46,0,0,0,8.54-5.93,27,27,0,0,0,5.5-9.46A38.27,38.27,0,0,0,463.19,144.23Z"/></g><g id="Layer_5_copy_2" data-name="Layer 5 copy 2"><path class="cls-2" d="M277.5,344.3H276c-11,0-20.25-2.56-27.94-6.92-39.48,12.56-59,51.27-59,85.62,0,32,16.92,60.24,50,60.24,38.71,0,55.62-34.61,55.62-62.55,0-19-7.69-34.86-22-34.86-12.56,0-21.53,13.07-21.53,28.71a44.5,44.5,0,0,0,5.9,22l-23.58,11.54a60.63,60.63,0,0,1-6.92-27.68c0-26.4,17.69-50,47.42-50,29.22,0,43.83,22.56,43.83,48.7,0,35.37-26.92,76.9-80.23,76.9-49.73,0-74.08-33.58-74.08-71.26,0-38.19,25.12-80.23,73.82-95.61a53.07,53.07,0,0,1-8.72-11.28c-5.64.51-11.28,0.77-17.43,0.77-56.91,0-79.21-27.17-79.21-52.29,0-21.79,16.41-42,41.78-42,17.69,0,31,6.41,41.27,24.35L197.27,262C192.4,251.51,186,245.1,173.69,245.1c-13.33,0-21.53,10.25-21.53,22.3,0,17.43,16.66,38.45,59,38.45,4.1,0,7.95-.26,11.79-0.51a83.81,83.81,0,0,1-3.85-25.63c0-35.12,20.25-71.52,56.91-71.52,25.12,0,38.45,16.66,38.45,37.17,0,25.38-20.51,56.65-63.83,68.44a40.21,40.21,0,0,0,6.92,11,124.08,124.08,0,0,1,20-1.54h2.56Zm-33.84-66.13a102,102,0,0,0,2.31,22c31.79-11.28,44.86-37.68,44.86-56.91,0-12.56-5.9-22.3-15.89-22.3C254.43,221,243.67,249.72,243.67,278.17Z"/></g><g id="Layer_6_copy_2" data-name="Layer 6 copy 2"><path class="cls-2" d="M318.67,338s2.29-23.11,9.4-42.16c5.08-28.7,9.4-54.35,12.44-73.65h21.84l-3.3,19c7.62-13,17-21.84,27.43-21.84,9.9,0,14,7.87,14,17.52a63.4,63.4,0,0,1-.51,6.35c8.89-14.73,19.81-23.87,31.75-23.87,8.89,0,14.73,5.84,14.73,18,0,23.62-16.51,53.84-16.51,74.67,0,7.36,2.79,8.63,5.08,8.63,6.6,0,15-14.22,26.16-43.43,1.52,0,7.11,2,7.11,3.56-11.17,29-22.6,58.41-43.43,58.41-8.89,0-17.27-7.11-17.27-22.6,0-27.43,16.51-55.62,16.51-73.9,0-2.79-1.27-5.08-4.06-5.08-6.35,0-17.78,12.19-26.41,49.52-3.81,20.57-8.13,41.4-10.41,50.79H360.07c6.1-27.94,17.78-82.29,17.78-93.21,0-4.06-1.27-5.33-3.3-5.33-8.13,0-18.79,19.81-25.65,56.13L340.77,338H318.67Z"/></g></svg>